HIERARCHY
ROOT Hips
{
	OFFSET -0.001795 -0.223333 0.028219
	CHANNELS 6 Xposition Yposition Zposition Zrotation Yrotation Xrotation 
	JOINT LeftUpLeg
	{
		OFFSET 0.069520 -0.091406 -0.006815
		CHANNELS 3 Zrotation Yrotation Xrotation
		JOINT LeftLeg
		{
			OFFSET 0.034277 -0.375199 -0.004496
			CHANNELS 3 Zrotation Yrotation Xrotation
			JOINT LeftFoot
			{
				OFFSET -0.013596 -0.397961 -0.043693
				CHANNELS 3 Zrotation Yrotation Xrotation
				JOINT LeftToe
				{
					OFFSET 0.026358 -0.055791 0.119288
					CHANNELS 3 Zrotation Yrotation Xrotation
					End Site
					{
						OFFSET 0.000000 0.000000 0.000000
					}
				}
			}
		}
	}
	JOINT RightUpLeg
	{
		OFFSET -0.067670 -0.090522 -0.004320
		CHANNELS 3 Zrotation Yrotation Xrotation
		JOINT RightLeg
		{
			OFFSET -0.038290 -0.382569 -0.008850
			CHANNELS 3 Zrotation Yrotation Xrotation
			JOINT RightFoot
			{
				OFFSET 0.015774 -0.398415 -0.042312
				CHANNELS 3 Zrotation Yrotation Xrotation
				JOINT RightToe
				{
					OFFSET -0.025372 -0.048144 0.123348
					CHANNELS 3 Zrotation Yrotation Xrotation
					End Site
					{
						OFFSET 0.000000 0.000000 0.000000
					}
				}
			}
		}
	}
	JOINT Spine
	{
		OFFSET -0.002533 0.108963 -0.026696
		CHANNELS 3 Zrotation Yrotation Xrotation
		JOINT Spine1
		{
			OFFSET 0.005487 0.135180 0.001092
			CHANNELS 3 Zrotation Yrotation Xrotation
			JOINT Spine2
			{
				OFFSET 0.001457 0.052922 0.025425
				CHANNELS 3 Zrotation Yrotation Xrotation
				JOINT Neck
				{
					OFFSET -0.002778 0.213870 -0.042857
					CHANNELS 3 Zrotation Yrotation Xrotation
					JOINT Head
					{
						OFFSET 0.005152 0.064970 0.051349
						CHANNELS 3 Zrotation Yrotation Xrotation
						End Site
						{
							OFFSET 0.000000 0.000000 0.000000
						}
					}
				}
				JOINT LeftShoulder
				{
					OFFSET 0.078845 0.121749 -0.034090
					CHANNELS 3 Zrotation Yrotation Xrotation
					JOINT LeftArm
					{
						OFFSET 0.090977 0.030469 -0.008868
						CHANNELS 3 Zrotation Yrotation Xrotation
						JOINT LeftForeArm
						{
							OFFSET 0.259612 -0.012772 -0.027456
							CHANNELS 3 Zrotation Yrotation Xrotation
							JOINT LeftHand
							{
								OFFSET 0.249234 0.008986 -0.001171
								CHANNELS 3 Zrotation Yrotation Xrotation
								End Site
								{
									OFFSET 0.000000 0.000000 0.000000
								}
							}
						}
					}
				}
				JOINT RightShoulder
				{
					OFFSET -0.081759 0.118833 -0.038615
					CHANNELS 3 Zrotation Yrotation Xrotation
					JOINT RightArm
					{
						OFFSET -0.096012 0.032551 -0.009143
						CHANNELS 3 Zrotation Yrotation Xrotation
						JOINT RightForeArm
						{
							OFFSET -0.253742 -0.013329 -0.021401
							CHANNELS 3 Zrotation Yrotation Xrotation
							JOINT RightHand
							{
								OFFSET -0.255298 0.007772 -0.005559
								CHANNELS 3 Zrotation Yrotation Xrotation
								End Site
								{
									OFFSET 0.000000 0.000000 0.000000
								}
							}
						}
					}
				}
			}
		}
	}
}
MOTION
Frames: 14
Frame Time: 0.050000
-1.359642 0.935555 0.933177 -175.116752 69.562203 -170.624733 0.709725 -3.259764 -18.727868 -4.911393 -2.935589 8.733698 6.642760 7.988460 15.401984 0.000000 0.000000 0.000000 -3.468193 -4.926006 -12.066486 5.083735 -8.055436 11.234227 -7.409963 -15.467304 7.250788 0.000000 0.000000 0.000000 -13.683999 -11.631779 36.613345 2.591956 2.216655 -23.029222 10.720793 22.630759 32.962851 2.823326 8.016957 -23.162896 0.000000 0.000000 0.000000 -21.582250 -18.934148 -30.738661 -37.711072 14.628994 -2.103339 -44.947640 -38.840698 12.301021 0.000000 0.000000 0.000000 20.041075 5.131706 27.765668 33.358338 42.986787 6.053960 -5.967571 30.045917 -1.920898 0.000000 0.000000 0.000000 
-1.357841 0.935718 0.931644 -175.126153 70.056169 -170.842233 0.590753 -3.065945 -18.224183 -4.764486 -2.899590 8.996593 6.975787 7.752684 14.426921 0.000000 0.000000 0.000000 -3.511243 -4.757830 -11.582891 4.784501 -8.134035 11.742993 -6.337092 -14.413528 6.278622 0.000000 0.000000 0.000000 -13.733017 -11.344106 36.278233 3.557840 2.121977 -23.237893 10.568835 22.358032 32.963149 2.776430 8.121900 -23.371273 0.000000 0.000000 0.000000 -21.775683 -18.733869 -30.864693 -38.494871 13.818304 -1.850429 -42.059423 -37.409451 10.733770 0.000000 0.000000 0.000000 21.044107 4.421674 27.997092 33.530435 41.712367 5.190106 -5.449570 31.296099 -1.855621 0.000000 0.000000 0.000000 
-1.356270 0.936164 0.930484 -175.774136 69.893001 -171.923727 0.156441 -2.883253 -17.751430 -4.857519 -2.936566 8.992479 6.977916 7.550234 14.154537 0.000000 0.000000 0.000000 -3.498339 -4.504969 -10.623281 4.432879 -8.175403 12.002156 -6.344208 -14.849266 6.150640 0.000000 0.000000 0.000000 -12.915624 -11.058598 35.597148 3.879964 2.150112 -22.654682 9.935828 21.447804 32.480183 2.278076 8.269036 -23.569513 0.000000 0.000000 0.000000 -22.345898 -19.610126 -30.716082 -38.448521 13.079953 -1.376644 -39.722939 -36.572129 9.896667 0.000000 0.000000 0.000000 21.599551 4.014035 28.008501 34.213136 40.551277 4.741052 -5.713266 32.379899 -1.919118 0.000000 0.000000 0.000000 
-1.355247 0.937074 0.929489 -175.300824 70.726260 -171.535871 0.031596 -2.809223 -17.587524 -4.824607 -2.866975 8.933972 7.229151 7.812896 13.834358 0.000000 0.000000 0.000000 -3.145106 -4.156295 -10.358605 4.044287 -7.839481 11.981907 -6.011859 -14.176460 6.223370 0.000000 0.000000 0.000000 -12.585782 -10.571077 34.872649 4.509099 2.068885 -22.693239 9.895029 21.148557 32.467362 2.058063 8.477425 -23.942346 0.000000 0.000000 0.000000 -22.518861 -19.322582 -30.793106 -39.155592 12.999367 -1.419085 -39.058782 -35.721693 9.313863 0.000000 0.000000 0.000000 22.202442 4.140701 28.454409 33.941372 39.747616 4.104200 -5.604508 33.175017 -1.943593 0.000000 0.000000 0.000000 
-1.354701 0.937949 0.928727 -175.198918 71.588083 -171.658037 -0.100076 -2.634813 -17.106214 -4.855572 -2.781663 8.613120 7.583559 8.359453 14.058531 0.000000 0.000000 0.000000 -2.874807 -3.833820 -9.938028 3.603010 -7.386578 11.796248 -6.153677 -14.379330 6.379663 0.000000 0.000000 0.000000 -11.887169 -10.278460 34.416100 4.757284 2.044048 -22.431180 9.511669 21.223314 32.390927 2.171993 8.494438 -24.096077 0.000000 0.000000 0.000000 -22.223085 -19.113734 -30.177933 -39.967510 12.709592 -1.646694 -38.761031 -36.168572 9.056447 0.000000 0.000000 0.000000 22.944962 3.987996 28.840526 33.402315 39.925524 3.702237 -5.637511 33.154376 -1.967566 0.000000 0.000000 0.000000 
-1.354550 0.938463 0.927926 -174.885227 72.760534 -171.234902 -0.112397 -2.679886 -17.277899 -4.785388 -2.698992 8.663678 7.496692 8.927364 14.335459 0.000000 0.000000 0.000000 -2.800075 -3.659750 -9.843050 3.556445 -7.048801 11.466287 -6.379807 -14.508448 6.623525 0.000000 0.000000 0.000000 -11.185613 -9.712134 33.471583 4.944799 1.996190 -21.977448 9.023993 20.938130 32.197952 2.168524 8.702743 -24.780947 0.000000 0.000000 0.000000 -21.967085 -18.932812 -29.555441 -40.906161 12.453348 -1.877395 -38.529856 -36.930442 8.842031 0.000000 0.000000 0.000000 23.458145 4.120894 29.163047 33.015292 39.761951 3.295972 -5.450108 33.450392 -1.918737 0.000000 0.000000 0.000000 
-1.354807 0.938849 0.927260 -174.722306 73.626768 -171.117664 -0.342265 -2.631614 -17.177786 -4.779638 -2.632971 8.582169 7.970553 9.660706 14.677469 0.000000 0.000000 0.000000 -2.756120 -3.430347 -9.274752 3.470213 -6.505974 10.656082 -6.562747 -14.748591 6.855859 0.000000 0.000000 0.000000 -10.471113 -9.583983 33.221042 4.870094 1.983482 -22.261532 9.291885 20.823924 32.500258 2.469058 8.940482 -25.398442 0.000000 0.000000 0.000000 -22.050110 -18.394289 -29.570407 -41.347241 12.602397 -2.124095 -39.615547 -37.611071 9.312475 0.000000 0.000000 0.000000 23.682583 4.013111 29.021655 32.617554 39.649303 3.118086 -5.111471 33.697152 -1.788655 0.000000 0.000000 0.000000 
-1.355497 0.939020 0.926658 -174.510014 74.532524 -170.654602 -0.559452 -2.786571 -17.660415 -4.717160 -2.576684 8.640674 7.477670 10.032396 15.008230 0.000000 0.000000 0.000000 -2.784777 -3.390766 -9.395974 3.617392 -6.154807 9.976779 -7.031511 -15.165523 7.284462 0.000000 0.000000 0.000000 -9.516910 -9.040832 32.172066 5.018875 1.936774 -21.649984 8.633847 20.473143 32.091947 2.705612 8.997260 -25.919207 0.000000 0.000000 0.000000 -22.347605 -18.357245 -29.525539 -41.626542 12.860174 -2.216373 -39.850732 -38.600778 9.595362 0.000000 0.000000 0.000000 24.194678 3.983976 29.328261 31.763971 39.566001 2.621389 -4.977892 34.061637 -1.738677 0.000000 0.000000 0.000000 
-1.356699 0.939590 0.926404 -174.127043 75.456795 -170.042294 -0.601227 -2.868020 -17.921017 -4.740174 -2.518752 8.562627 7.404923 10.518970 15.295716 0.000000 0.000000 0.000000 -2.943283 -3.344630 -9.270433 4.141323 -5.956862 9.138854 -7.280075 -14.838004 8.061731 0.000000 0.000000 0.000000 -9.141292 -8.883343 31.938228 5.012344 1.911753 -21.826278 8.740349 20.310659 32.041118 2.873373 9.108088 -26.170404 0.000000 0.000000 0.000000 -22.669839 -18.127609 -29.557589 -41.770907 12.943421 -2.251971 -40.401033 -38.882996 9.876245 0.000000 0.000000 0.000000 23.998498 4.136395 28.941453 31.626499 39.287491 2.599477 -4.014311 34.501444 -1.387410 0.000000 0.000000 0.000000 
-1.358268 0.939701 0.926377 -173.659303 76.354780 -169.322984 -0.537717 -2.992971 -18.271971 -4.940837 -2.517738 8.634606 7.432988 11.024971 15.521965 0.000000 0.000000 0.000000 -3.051389 -3.362659 -9.451292 4.669946 -5.656718 7.998863 -7.883594 -14.872592 9.159787 0.000000 0.000000 0.000000 -8.706444 -8.751500 31.726625 4.938738 1.891497 -21.993475 8.626675 20.448403 32.318551 3.125807 8.961033 -25.745176 0.000000 0.000000 0.000000 -22.924921 -18.494432 -29.577092 -42.057575 12.488721 -1.989546 -40.341423 -39.420254 9.980484 0.000000 0.000000 0.000000 23.902015 3.926576 28.640900 31.170195 39.201077 2.483520 -4.423434 35.739010 -1.369788 0.000000 0.000000 0.000000 
-1.359821 0.940248 0.926707 -173.214407 77.272434 -168.574335 -0.348406 -3.115529 -18.626671 -4.624758 -2.394647 8.581611 6.978213 11.252255 15.806529 0.000000 0.000000 0.000000 -3.086168 -3.352254 -9.765831 4.867451 -5.473889 7.575050 -8.069255 -14.689867 9.596187 0.000000 0.000000 0.000000 -8.525315 -8.608991 31.580283 4.824787 1.887732 -21.899684 8.389918 20.367316 32.097969 3.267360 8.900274 -25.682821 0.000000 0.000000 0.000000 -23.318569 -18.648087 -29.433336 -42.322102 12.106866 -1.782895 -40.153373 -39.903968 10.049064 0.000000 0.000000 0.000000 23.199999 4.046839 27.767926 31.464498 38.662980 2.679712 -4.856432 37.117950 -1.270643 0.000000 0.000000 0.000000 
-1.360865 0.940397 0.927262 -172.267513 78.266738 -167.688798 0.087535 -3.083375 -18.543252 -4.747699 -2.362632 8.622284 7.004220 11.616625 15.947047 0.000000 0.000000 0.000000 -2.955781 -3.209407 -9.769469 5.080765 -5.312129 7.086744 -8.062337 -14.141052 10.125988 0.000000 0.000000 0.000000 -8.427721 -8.614847 31.730918 4.705858 1.886851 -21.817579 8.281806 20.302091 32.188837 3.345325 8.829606 -25.202138 0.000000 0.000000 0.000000 -23.741278 -18.936106 -29.207302 -42.676660 11.403682 -1.436242 -39.414184 -40.232316 9.859126 0.000000 0.000000 0.000000 22.992832 4.260843 27.332219 31.306335 38.204338 2.571231 -5.219081 38.981550 -1.199038 0.000000 0.000000 0.000000 
-1.361361 0.940632 0.928118 -171.417483 78.834511 -166.726133 0.140363 -3.053164 -18.481772 -4.247867 -2.213886 8.395010 7.149529 11.750084 15.922791 0.000000 0.000000 0.000000 -2.842261 -3.028313 -9.421850 5.085020 -4.940188 6.203256 -8.097539 -14.304234 10.081332 0.000000 0.000000 0.000000 -8.548608 -8.536770 31.709964 4.724042 1.863304 -21.848631 8.263256 20.029884 32.297186 3.166930 8.811539 -24.801136 0.000000 0.000000 0.000000 -24.052570 -18.966459 -29.146608 -42.811789 11.330653 -1.355409 -39.063493 -40.872589 9.932664 0.000000 0.000000 0.000000 22.532524 4.168509 26.587093 32.197498 37.449948 2.694355 -5.846651 40.941373 -1.116677 0.000000 0.000000 0.000000 
-1.361541 0.940570 0.929194 -169.083591 79.573202 -164.266124 0.641089 -3.071307 -18.530412 -4.261639 -2.129133 8.037090 7.507197 12.259166 16.236939 0.000000 0.000000 0.000000 -2.419096 -2.800636 -9.556691 4.786078 -4.637757 5.970694 -7.760325 -13.528523 10.165199 0.000000 0.000000 0.000000 -8.701225 -8.550759 31.908547 4.421176 1.890238 -21.510330 8.190574 19.840117 32.154617 3.001391 8.564162 -23.576349 0.000000 0.000000 0.000000 -23.837791 -18.191446 -28.575497 -43.023271 10.568222 -1.407810 -39.243193 -41.682411 10.121250 0.000000 0.000000 0.000000 23.081994 4.184198 26.622596 32.448114 37.199872 2.438800 -6.250536 42.637966 -1.140652 0.000000 0.000000 0.000000 
